<?xml version="1.0" standalone="no"?>
<!DOCTYPE svg PUBLIC "-//W3C//DTD SVG 20010904//EN"
 "http://www.w3.org/TR/2001/REC-SVG-20010904/DTD/svg10.dtd">
<svg version="1.0" xmlns="http://www.w3.org/2000/svg"
 width="723.000000pt" height="468.000000pt" viewBox="0 0 723.000000 468.000000"
 preserveAspectRatio="xMidYMid meet">

<g transform="translate(0.000000,468.000000) scale(0.100000,-0.100000)"
fill="#000000" stroke="none">
<path d="M3565 2999 c-55 -4 -126 -17 -157 -28 -155 -54 -291 -197 -342 -361
-49 -154 -53 -311 -11 -475 40 -157 151 -304 276 -362 121 -57 188 -66 557
-71 l333 -4 -3 114 -3 113 -290 5 c-253 4 -297 7 -349 25 -104 35 -172 117
-191 233 -4 23 -3 43 2 43 9 2 347 7 511 8 l112 1 0 110 0 110 -316 0 -317 0
6 59 c9 103 57 180 137 221 59 30 168 40 434 40 l256 0 0 115 0 115 -272 -1
c-150 -1 -318 -5 -373 -10z"/>
<path d="M4690 2945 l0 -65 160 0 160 0 0 65 0 65 -160 0 -160 0 0 -65z"/>
<path d="M5530 2950 l0 -60 159 0 159 0 0 60 -1 60 -158 0 -159 0 0 -60z"/>
<path d="M1758 2990 c-208 -35 -354 -132 -427 -283 -48 -99 -48 -101 10 -200
81 -136 303 -418 284 -362 -26 79 -34 282 -14 375 32 153 122 227 299 249 46
6 221 11 387 11 l303 0 0 110 0 110 -397 -1 c-219 -1 -419 -5 -445 -9z"/>
<path d="M4693 2358 c2 -332 7 -474 15 -500 33 -97 130 -171 245 -184 l57 -7
0 577 0 576 -161 0 -160 0 4 -462z"/>
<path d="M5534 2807 c-3 -8 -3 -214 -2 -458 4 -511 6 -521 84 -596 45 -43 143
-83 205 -83 l29 0 -2 573 -3 572 -153 3 c-122 2 -153 0 -158 -11z"/>
<path d="M1980 2355 l0 -115 155 0 155 0 1 -62 c1 -35 2 -101 3 -148 2 -47 -2
-91 -7 -98 -11 -15 -256 -16 -381 -2 -44 5 -81 8 -82 7 -5 -4 168 -142 239
-190 l68 -47 240 0 240 0 -2 373 c-1 204 -4 378 -7 385 -3 9 -75 12 -313 12
l-309 0 0 -115z"/>
<path d="M1260 2332 c0 -216 51 -365 164 -478 109 -109 257 -158 455 -152 l91
3 -72 55 c-40 30 -150 131 -244 225 -164 164 -249 263 -348 408 l-46 68 0
-129z"/>
<path d="M6366 2354 c-4 -14 -5 -28 -3 -31 3 -2 8 8 11 23 4 14 5 28 3 31 -3
2 -8 -8 -11 -23z"/>
<path d="M6326 2235 c-9 -26 -7 -32 5 -12 6 10 9 21 6 23 -2 3 -7 -2 -11 -11z"/>
<path d="M6310 2198 c0 -3 -7 -22 -15 -42 -8 -20 -13 -36 -10 -36 9 0 37 71
31 78 -3 3 -6 3 -6 0z"/>
<path d="M6235 2032 c-470 -897 -1719 -1581 -2867 -1571 -214 2 -306 10 -482
45 -425 83 -757 274 -972 559 -52 69 -74 89 -74 66 0 -5 31 -50 70 -99 73 -95
187 -202 286 -269 126 -86 334 -184 464 -220 289 -79 426 -97 730 -96 159 0
275 6 360 17 724 96 1403 398 1926 857 191 169 327 323 459 524 70 106 151
253 143 260 -2 2 -21 -31 -43 -73z"/>
<path d="M3282 1603 c-6 -10 -13 -37 -17 -60 l-7 -43 50 0 c43 0 50 3 56 23
10 40 7 47 -24 47 -16 0 -30 -4 -30 -10 0 -5 7 -10 15 -10 8 0 15 -7 15 -15 0
-9 -9 -15 -25 -15 -26 0 -31 13 -19 58 5 18 13 22 45 22 22 0 39 5 39 10 0 6
-20 10 -45 10 -32 0 -47 -5 -53 -17z"/>
<path d="M3445 1610 c-16 -7 -17 -9 -3 -9 9 -1 20 4 23 9 7 11 7 11 -20 0z"/>
<path d="M3650 1610 c0 -5 4 -10 9 -10 6 0 13 5 16 10 3 6 -1 10 -9 10 -9 0
-16 -4 -16 -10z"/>
<path d="M3880 1610 c0 -5 23 -10 50 -10 28 0 50 5 50 10 0 6 -22 10 -50 10
-27 0 -50 -4 -50 -10z"/>
<path d="M3987 1560 c-11 -46 -12 -60 -3 -60 7 0 18 23 24 51 14 61 15 69 3
69 -5 0 -15 -27 -24 -60z"/>
<path d="M4261 1570 c-15 -69 -15 -70 14 -70 14 0 25 5 25 10 0 6 -4 10 -10
10 -5 0 -10 11 -10 24 0 16 7 26 23 31 19 6 20 8 4 12 -11 3 -16 11 -13 19 3
8 -1 14 -8 14 -9 0 -18 -19 -25 -50z"/>
<path d="M4430 1610 c0 -5 7 -10 15 -10 8 0 15 5 15 10 0 6 -7 10 -15 10 -8 0
-15 -4 -15 -10z"/>
<path d="M5037 1606 c-3 -7 -9 -34 -12 -60 -7 -42 -5 -46 13 -46 12 0 24 5 27
10 3 6 -1 10 -10 10 -12 0 -15 5 -11 16 3 9 6 20 6 25 0 5 7 9 15 9 8 0 15 5
15 10 0 6 -4 10 -10 10 -5 0 -10 7 -10 15 0 19 -16 20 -23 1z"/>
<path d="M3403 1582 c-6 -4 -14 -24 -18 -45 l-7 -37 45 0 c25 0 49 5 52 10 4
6 -8 10 -30 10 -32 0 -36 3 -33 23 2 17 10 22 33 24 18 1 22 -1 10 -4 -39 -10
-40 -23 -2 -23 33 0 37 3 37 25 0 22 -4 25 -37 25 -21 0 -43 -4 -50 -8z"/>
<path d="M3510 1551 c-12 -45 -12 -51 0 -51 5 0 13 15 18 33 6 25 14 33 36 35
28 3 28 2 22 -32 -4 -22 -3 -36 3 -36 14 0 18 9 26 53 l7 37 -51 -1 c-49 -2
-51 -3 -61 -38z"/>
<path d="M3640 1576 c0 -7 -3 -28 -6 -45 -8 -39 11 -42 20 -3 4 15 9 35 12 45
4 11 0 17 -10 17 -9 0 -16 -6 -16 -14z"/>
<path d="M3691 1573 c-5 -10 -11 -29 -12 -43 -4 -23 -1 -25 44 -28 28 -2 47 1
47 7 0 6 -16 11 -35 11 -19 0 -35 4 -35 9 0 26 14 41 39 40 23 -2 24 -2 4 -6
-33 -6 -28 -23 6 -23 28 0 47 22 35 41 -10 17 -83 10 -93 -8z"/>
<path d="M3877 1583 c-2 -5 -7 -25 -11 -45 l-7 -38 51 0 c27 0 50 5 50 10 0 6
-16 10 -35 10 -24 0 -35 5 -35 15 0 8 9 15 20 15 11 0 20 5 20 10 0 6 -7 10
-15 10 -8 0 -15 5 -15 10 0 12 -17 13 -23 3z"/>
<path d="M4042 1577 c-6 -7 -12 -26 -14 -42 -3 -29 -2 -30 45 -33 28 -2 47 1
47 7 0 6 -16 11 -36 11 -31 0 -35 3 -32 23 2 17 10 22 33 24 20 1 23 0 8 -4
-33 -6 -28 -23 6 -23 20 0 30 6 34 19 3 11 2 22 -1 25 -11 11 -80 6 -90 -7z"/>
<path d="M4162 1577 c-6 -7 -12 -26 -14 -42 -3 -29 -1 -30 40 -33 25 -2 42 1
42 7 0 6 -13 11 -30 11 -16 0 -30 4 -30 9 0 26 15 41 40 41 16 0 32 5 35 10 9
15 -71 12 -83 -3z"/>
<path d="M4335 1581 c-2 -3 -6 -23 -10 -44 -9 -46 8 -50 21 -5 6 20 17 34 29
36 38 7 39 22 1 20 -20 -1 -38 -4 -41 -7z"/>
<path d="M4427 1583 c-11 -20 -17 -83 -8 -83 6 0 15 17 20 38 13 46 13 52 2
52 -6 0 -12 -3 -14 -7z"/>
<path d="M4471 1573 c-5 -10 -11 -29 -12 -43 -3 -20 1 -26 20 -28 13 -2 28 1
34 7 8 8 5 11 -11 11 -12 0 -22 4 -22 9 0 25 15 41 37 41 23 0 25 -2 19 -36
-4 -19 -10 -42 -13 -50 -3 -8 1 -14 10 -14 9 0 17 14 22 38 3 20 9 47 12 60 5
20 2 22 -41 22 -33 0 -48 -5 -55 -17z"/>
<path d="M4596 1582 c-2 -4 -7 -24 -11 -45 l-7 -37 51 1 c49 2 51 3 61 38 13
47 13 54 -2 49 -7 -3 -15 -18 -18 -34 -4 -23 -11 -30 -34 -32 -28 -4 -29 -2
-23 32 5 32 -4 48 -17 28z"/>
<path d="M4720 1564 c-20 -53 -14 -64 35 -64 25 0 45 5 45 10 0 6 -16 10 -36
10 -29 0 -35 3 -30 16 3 9 6 20 6 25 0 5 12 8 28 8 23 -2 24 -2 5 -6 -35 -7
-27 -25 10 -21 24 2 33 8 35 26 3 20 -1 22 -43 22 -40 0 -47 -3 -55 -26z"/>
<path d="M4910 1564 c-20 -53 -14 -64 35 -64 25 0 45 5 45 10 0 6 -16 10 -36
10 -29 0 -35 3 -30 16 3 9 6 20 6 25 0 5 12 8 28 8 23 -2 24 -2 5 -6 -35 -7
-27 -25 10 -21 24 2 33 8 35 26 3 20 -1 22 -43 22 -40 0 -47 -3 -55 -26z"/>
<path d="M2995 1358 c-13 -40 -26 -101 -21 -105 11 -11 24 9 30 46 3 22 9 46
12 55 3 9 1 16 -5 16 -7 0 -14 -6 -16 -12z"/>
<path d="M3172 1358 c-5 -7 -14 -34 -20 -60 -7 -37 -7 -48 3 -48 7 0 16 16 19
35 4 21 13 35 21 35 18 0 20 16 3 23 -8 3 -6 6 5 6 9 1 17 6 17 11 0 14 -36
12 -48 -2z"/>
<path d="M3757 1356 c-3 -7 -9 -34 -12 -60 -7 -42 -5 -46 13 -46 12 0 24 5 27
10 3 6 -1 10 -10 10 -12 0 -15 5 -11 16 3 9 6 20 6 25 0 5 7 9 15 9 8 0 15 5
15 10 0 6 -4 10 -10 10 -5 0 -10 7 -10 15 0 19 -16 20 -23 1z"/>
<path d="M3830 1360 c0 -5 7 -10 15 -10 8 0 15 5 15 10 0 6 -7 10 -15 10 -8 0
-15 -4 -15 -10z"/>
<path d="M4310 1328 c-6 -24 -13 -51 -16 -60 -3 -11 0 -18 9 -18 9 0 17 14 21
38 3 20 9 47 12 60 4 13 2 22 -4 22 -6 0 -16 -19 -22 -42z"/>
<path d="M4560 1320 c-10 -43 -15 -50 -37 -50 -20 0 -24 4 -21 23 2 14 11 23
26 25 32 5 27 22 -7 22 -35 0 -37 -3 -46 -53 l-7 -37 49 0 50 0 11 51 c14 61
15 69 3 69 -5 0 -14 -22 -21 -50z"/>
<path d="M4853 1318 c-6 -29 -9 -56 -6 -60 6 -12 43 -10 43 2 0 6 -4 10 -10
10 -19 0 -10 42 10 47 23 6 27 23 5 23 -9 0 -12 6 -9 15 4 9 0 15 -8 15 -9 0
-18 -19 -25 -52z"/>
<path d="M5025 1360 c-3 -5 1 -10 9 -10 9 0 16 5 16 10 0 6 -4 10 -9 10 -6 0
-13 -4 -16 -10z"/>
<path d="M5182 1319 c-14 -61 -15 -69 -3 -69 5 0 15 27 24 60 11 46 12 60 3
60 -7 0 -18 -23 -24 -51z"/>
<path d="M5227 1310 c-11 -46 -12 -60 -3 -60 7 0 18 23 24 51 14 61 15 69 3
69 -5 0 -15 -27 -24 -60z"/>
<path d="M3030 1301 c-12 -45 -12 -51 0 -51 5 0 13 15 18 33 6 25 14 33 36 35
28 3 28 2 22 -32 -4 -22 -3 -36 3 -36 14 0 18 9 26 53 l7 37 -51 -1 c-49 -2
-51 -3 -61 -38z"/>
<path d="M3230 1314 c-20 -53 -14 -64 35 -64 48 0 65 16 65 64 0 24 -3 26 -45
26 -40 0 -47 -3 -55 -26z m76 -10 c-3 -9 -6 -20 -6 -25 0 -5 -14 -9 -31 -9
-24 0 -30 3 -25 16 3 9 6 20 6 25 0 5 14 9 31 9 24 0 30 -3 25 -16z"/>
<path d="M3355 1331 c-2 -3 -6 -23 -10 -44 -9 -46 8 -50 21 -5 6 20 17 34 29
36 38 7 39 22 1 20 -20 -1 -38 -4 -41 -7z"/>
<path d="M3446 1331 c-2 -3 -7 -23 -11 -44 -9 -46 8 -50 21 -4 7 22 17 33 32
35 21 3 23 1 16 -32 -4 -23 -2 -36 4 -36 6 0 14 16 18 35 5 29 11 35 31 35 22
0 23 -3 17 -35 -4 -21 -2 -35 4 -35 11 0 33 78 23 84 -10 6 -151 4 -155 -3z"/>
<path d="M3630 1330 c0 -5 16 -10 36 -10 31 0 35 -3 32 -22 -2 -17 -11 -24
-30 -26 -16 -2 -28 1 -28 7 0 6 9 11 20 11 11 0 20 5 20 10 0 19 -49 10 -60
-10 -16 -30 -4 -40 45 -40 42 0 44 2 54 37 6 20 8 40 5 45 -7 12 -94 10 -94
-2z"/>
<path d="M3827 1333 c-11 -20 -17 -83 -8 -83 6 0 15 17 20 38 13 46 13 52 2
52 -6 0 -12 -3 -14 -7z"/>
<path d="M3871 1323 c-5 -10 -11 -29 -12 -43 -3 -20 1 -26 20 -28 13 -2 28 1
34 7 8 8 5 11 -11 11 -12 0 -22 4 -22 9 0 25 15 41 37 41 23 0 25 -2 19 -36
-4 -19 -10 -42 -13 -50 -3 -8 1 -14 10 -14 9 0 17 14 22 38 3 20 9 47 12 60 5
20 2 22 -41 22 -33 0 -48 -5 -55 -17z"/>
<path d="M3986 1309 c-11 -57 -10 -59 44 -59 28 0 50 3 50 8 0 4 4 24 9 45 7
29 6 37 -5 37 -8 0 -14 -9 -14 -19 0 -37 -12 -51 -41 -51 -16 0 -29 1 -29 3 0
1 4 17 9 35 7 24 7 32 -3 32 -8 0 -16 -14 -20 -31z"/>
<path d="M4120 1314 c-20 -53 -14 -64 35 -64 25 0 45 5 45 10 0 6 -16 10 -36
10 -29 0 -35 3 -30 16 3 9 6 20 6 25 0 5 12 8 28 8 23 -2 24 -2 5 -6 -35 -7
-27 -25 10 -21 24 2 33 8 35 26 3 20 -1 22 -43 22 -40 0 -47 -3 -55 -26z"/>
<path d="M4356 1313 c-4 -16 -9 -36 -12 -45 -4 -12 0 -18 10 -18 9 0 16 8 16
19 0 36 12 51 40 51 27 0 28 -1 20 -35 -6 -26 -5 -35 5 -35 7 0 15 14 19 31
11 57 10 59 -43 59 -45 0 -49 -2 -55 -27z"/>
<path d="M4601 1303 c-6 -20 -8 -40 -5 -45 6 -9 93 -8 99 1 2 3 6 23 10 44 9
47 -11 51 -23 5 -6 -26 -14 -34 -36 -36 -28 -3 -28 -2 -22 32 9 48 -10 47 -23
-1z"/>
<path d="M4737 1333 c-4 -3 -7 -15 -7 -25 0 -14 8 -18 35 -18 19 0 35 -4 35
-10 0 -5 -18 -10 -39 -10 -22 0 -43 -4 -46 -10 -4 -6 13 -10 44 -10 41 0 52 4
62 21 14 26 4 36 -41 42 -30 3 -28 4 13 5 26 1 47 7 47 12 0 11 -93 14 -103 3z"/>
<path d="M4920 1301 c-12 -45 -12 -51 0 -51 5 0 13 15 18 33 6 25 14 33 35 35
40 5 33 22 -8 20 -31 -1 -36 -5 -45 -37z"/>
<path d="M5017 1323 c-14 -52 -16 -73 -8 -73 13 0 18 9 26 53 7 37 -9 55 -18
20z"/>
<path d="M5073 1332 c-6 -4 -14 -24 -18 -45 l-7 -37 45 0 c25 0 49 5 52 10 4
6 -8 10 -30 10 -32 0 -36 3 -33 23 2 17 10 22 33 24 18 1 22 -1 10 -4 -39 -10
-40 -23 -2 -23 33 0 37 3 37 25 0 22 -4 25 -37 25 -21 0 -43 -4 -50 -8z"/>
<path d="M5282 1327 c-6 -7 -12 -26 -14 -42 -3 -29 -2 -30 45 -33 28 -2 47 1
47 7 0 6 -16 11 -36 11 -31 0 -35 3 -32 23 2 17 10 22 33 24 20 1 23 0 8 -4
-33 -6 -28 -23 6 -23 20 0 30 6 34 19 3 11 2 22 -1 25 -11 11 -80 6 -90 -7z"/>
</g>
</svg>
